ffmpeg started on 2025-06-05 at 19:20:56
Report written to "D:\Convert\FFMetrics\reports\psnr_report-6.txt"
Log level: 32
Command line:
ffmpeg -hide_banner -nostdin -i "G:\\\xc0\xed\xe8\xec\xe5\\\xce\xed\xe3\xee\xe8\xed\xe3\xe8\\!_36_\xce\xf1\xe5\xed\xfc_2024\\DreamCast\\\xca\xee\xec\xef\xe0\xed\xe8\xff \xab\xcc\xe0\xe3\xe8-\xcb\xfe\xec\xfc\xe5\xf0\xbb\\[DC] Kabushikigaisha Magilumiere - 10_Telegram_HEVC.mkv" -i "G:\\\xc0\xed\xe8\xec\xe5\\\xce\xed\xe3\xee\xe8\xed\xe3\xe8\\!_36_\xce\xf1\xe5\xed\xfc_2024\\DreamCast\\\xca\xee\xec\xef\xe0\xed\xe8\xff \xab\xcc\xe0\xe3\xe8-\xcb\xfe\xec\xfc\xe5\xf0\xbb\\[DC] Kabushikigaisha Magilumiere - 10_Telegram.mp4" -lavfi "[0:v]settb=AVTB,setpts=PTS-STARTPTS,format=pix_fmts=yuv420p10,fps=24000/1001,scale=1920:1080:flags=bicubic[main];[1:v]settb=AVTB,setpts=PTS-STARTPTS,format=pix_fmts=yuv420p,fps=24000/1001,scale=1920:1080:flags=bicubic[ref];[main][ref]psnr=eof_action=endall:stats_file='D\\:/Convert/FFMetrics/logs/psnr_logfile-6.txt'" -f null -
Input #0, matroska,webm, from 'G:\Аниме\Онгоинги\!_36_Осень_2024\DreamCast\Компания «Маги-Люмьер»\[DC] Kabushikigaisha Magilumiere - 10_Telegram_HEVC.mkv':
  Metadata:
    COMPATIBLE_BRANDS: isomiso2avc1mp41
    MAJOR_BRAND     : isom
    MINOR_VERSION   : 512
    ENCODER         : Lavf61.7.100
  Duration: 00:24:06.57, start: -0.021000, bitrate: 1406 kb/s
  Stream #0:0: Video: hevc (Main 10), yuv420p10le(tv, bt709, progressive), 1920x1080 [SAR 1:1 DAR 16:9], 23.98 fps, 23.98 tbr, 1k tbn (default)
      Metadata:
        HANDLER_NAME    : VideoHandler
        VENDOR_ID       : [0][0][0][0]
        ENCODER         : Lavc61.19.100 libx265
        BPS             : 1209045
        DURATION        : 00:24:06.444708333
        NUMBER_OF_FRAMES: 34680
        NUMBER_OF_BYTES : 218602146
        _STATISTICS_WRITING_APP: mkvpropedit v66.0.0 ('Josie') 64-bit
        _STATISTICS_WRITING_DATE_UTC: 2025-05-30 19:02:10
        _STATISTICS_TAGS: BPS DURATION NUMBER_OF_FRAMES NUMBER_OF_BYTES
  Stream #0:1: Audio: aac (LC), 48000 Hz, stereo, fltp (default)
      Metadata:
        HANDLER_NAME    : SoundHandler
        VENDOR_ID       : [0][0][0][0]
        ENCODER         : Lavc61.19.100 aac
        BPS             : 193878
        DURATION        : 00:24:06.570000000
        NUMBER_OF_FRAMES: 67809
        NUMBER_OF_BYTES : 35057417
        _STATISTICS_WRITING_APP: mkvpropedit v66.0.0 ('Josie') 64-bit
        _STATISTICS_WRITING_DATE_UTC: 2025-05-30 19:02:10
        _STATISTICS_TAGS: BPS DURATION NUMBER_OF_FRAMES NUMBER_OF_BYTES
Input #1, mov,mp4,m4a,3gp,3g2,mj2, from 'G:\Аниме\Онгоинги\!_36_Осень_2024\DreamCast\Компания «Маги-Люмьер»\[DC] Kabushikigaisha Magilumiere - 10_Telegram.mp4':
  Metadata:
    major_brand     : isom
    minor_version   : 512
    compatible_brands: isomiso2avc1mp41
    encoder         : Lavf61.1.100
  Duration: 00:24:06.51, start: 0.000000, bitrate: 3664 kb/s
  Stream #1:0[0x1](und): Video: h264 (High) (avc1 / 0x31637661), yuv420p(tv, bt709, progressive), 1920x1080 [SAR 1:1 DAR 16:9], 3516 kb/s, 23.98 fps, 23.98 tbr, 24k tbn (default)
      Metadata:
        handler_name    : VideoHandler
        vendor_id       : [0][0][0][0]
        encoder         : Lavc61.3.100 h264_qsv
  Stream #1:1[0x2](und): Audio: aac (HE-AACv2) (mp4a / 0x6134706D), 48000 Hz, stereo, fltp, 144 kb/s (default)
      Metadata:
        handler_name    : SoundHandler
        vendor_id       : [0][0][0][0]
Stream mapping:
  Stream #0:0 (hevc) -> settb:default
  Stream #1:0 (h264) -> settb:default
  psnr:default -> Stream #0:0 (wrapped_avframe)
  Stream #0:1 -> #0:1 (aac (native) -> pcm_s16le (native))
Output #0, null, to 'pipe:':
  Metadata:
    COMPATIBLE_BRANDS: isomiso2avc1mp41
    MAJOR_BRAND     : isom
    MINOR_VERSION   : 512
    encoder         : Lavf61.7.100
  Stream #0:0: Video: wrapped_avframe, yuv420p10le(tv, bt709, progressive), 1920x1080 [SAR 1:1 DAR 16:9], q=2-31, 200 kb/s, 23.98 fps, 23.98 tbn
      Metadata:
        encoder         : Lavc61.19.100 wrapped_avframe
  Stream #0:1: Audio: pcm_s16le, 48000 Hz, stereo, s16, 1536 kb/s (default)
      Metadata:
        HANDLER_NAME    : SoundHandler
        VENDOR_ID       : [0][0][0][0]
        _STATISTICS_TAGS: BPS DURATION NUMBER_OF_FRAMES NUMBER_OF_BYTES
        BPS             : 193878
        DURATION        : 00:24:06.570000000
        NUMBER_OF_FRAMES: 67809
        NUMBER_OF_BYTES : 35057417
        _STATISTICS_WRITING_APP: mkvpropedit v66.0.0 ('Josie') 64-bit
        _STATISTICS_WRITING_DATE_UTC: 2025-05-30 19:02:10
        encoder         : Lavc61.19.100 pcm_s16le
frame=  158 fps=0.0 q=-0.0 size=N/A time=00:00:06.58 bitrate=N/A speed=12.9x    frame=  381 fps=373 q=-0.0 size=N/A time=00:00:15.89 bitrate=N/A speed=15.5x    frame=  576 fps=372 q=-0.0 size=N/A time=00:00:24.02 bitrate=N/A speed=15.5x    frame=  760 fps=368 q=-0.0 size=N/A time=00:00:31.69 bitrate=N/A speed=15.3x    frame=  953 fps=370 q=-0.0 size=N/A time=00:00:39.74 bitrate=N/A speed=15.4x    frame= 1124 fps=364 q=-0.0 size=N/A time=00:00:46.88 bitrate=N/A speed=15.2x    frame= 1311 fps=363 q=-0.0 size=N/A time=00:00:54.67 bitrate=N/A speed=15.2x    frame= 1459 fps=354 q=-0.0 size=N/A time=00:01:00.85 bitrate=N/A speed=14.8x    frame= 1637 fps=353 q=-0.0 size=N/A time=00:01:08.27 bitrate=N/A speed=14.7x    frame= 1850 fps=359 q=-0.0 size=N/A time=00:01:17.16 bitrate=N/A speed=  15x    frame= 2051 fps=362 q=-0.0 size=N/A time=00:01:25.54 bitrate=N/A speed=15.1x    frame= 2256 fps=365 q=-0.0 size=N/A time=00:01:34.09 bitrate=N/A speed=15.2x    frame= 2421 fps=361 q=-0.0 size=N/A time=00:01:40.97 bitrate=N/A speed=15.1x    frame= 2560 fps=355 q=-0.0 size=N/A time=00:01:46.77 bitrate=N/A speed=14.8x    frame= 2720 fps=352 q=-0.0 size=N/A time=00:01:53.44 bitrate=N/A speed=14.7x    frame= 2929 fps=355 q=-0.0 size=N/A time=00:02:02.16 bitrate=N/A speed=14.8x    frame= 3117 fps=356 q=-0.0 size=N/A time=00:02:10.00 bitrate=N/A speed=14.8x    frame= 3369 fps=363 q=-0.0 size=N/A time=00:02:20.51 bitrate=N/A speed=15.2x    frame= 3631 fps=371 q=-0.0 size=N/A time=00:02:31.44 bitrate=N/A speed=15.5x    frame= 3887 fps=377 q=-0.0 size=N/A time=00:02:42.12 bitrate=N/A speed=15.7x    frame= 4107 fps=379 q=-0.0 size=N/A time=00:02:51.29 bitrate=N/A speed=15.8x    frame= 4325 fps=381 q=-0.0 size=N/A time=00:03:00.38 bitrate=N/A speed=15.9x    frame= 4544 fps=383 q=-0.0 size=N/A time=00:03:09.52 bitrate=N/A speed=  16x    frame= 4756 fps=384 q=-0.0 size=N/A time=00:03:18.36 bitrate=N/A speed=  16x    frame= 5014 fps=389 q=-0.0 size=N/A time=00:03:29.12 bitrate=N/A speed=16.2x    frame= 5271 fps=393 q=-0.0 size=N/A time=00:03:39.84 bitrate=N/A speed=16.4x    frame= 5514 fps=396 q=-0.0 size=N/A time=00:03:49.97 bitrate=N/A speed=16.5x    frame= 5778 fps=400 q=-0.0 size=N/A time=00:04:00.99 bitrate=N/A speed=16.7x    frame= 6041 fps=404 q=-0.0 size=N/A time=00:04:11.96 bitrate=N/A speed=16.9x    frame= 6287 fps=407 q=-0.0 size=N/A time=00:04:22.22 bitrate=N/A speed=  17x    frame= 6558 fps=410 q=-0.0 size=N/A time=00:04:33.52 bitrate=N/A speed=17.1x    frame= 6815 fps=413 q=-0.0 size=N/A time=00:04:44.24 bitrate=N/A speed=17.2x    frame= 7068 fps=415 q=-0.0 size=N/A time=00:04:54.79 bitrate=N/A speed=17.3x    frame= 7304 fps=417 q=-0.0 size=N/A time=00:05:04.63 bitrate=N/A speed=17.4x    frame= 7543 fps=418 q=-0.0 size=N/A time=00:05:14.60 bitrate=N/A speed=17.4x    frame= 7777 fps=419 q=-0.0 size=N/A time=00:05:24.36 bitrate=N/A speed=17.5x    frame= 8032 fps=421 q=-0.0 size=N/A time=00:05:35.00 bitrate=N/A speed=17.6x    frame= 8283 fps=423 q=-0.0 size=N/A time=00:05:45.47 bitrate=N/A speed=17.6x    frame= 8536 fps=424 q=-0.0 size=N/A time=00:05:56.06 bitrate=N/A speed=17.7x    frame= 8786 fps=426 q=-0.0 size=N/A time=00:06:06.44 bitrate=N/A speed=17.8x    frame= 9034 fps=427 q=-0.0 size=N/A time=00:06:16.79 bitrate=N/A speed=17.8x    frame= 9229 fps=426 q=-0.0 size=N/A time=00:06:24.92 bitrate=N/A speed=17.8x    frame= 9473 fps=427 q=-0.0 size=N/A time=00:06:35.10 bitrate=N/A speed=17.8x    frame= 9712 fps=428 q=-0.0 size=N/A time=00:06:45.07 bitrate=N/A speed=17.9x    frame= 9974 fps=430 q=-0.0 size=N/A time=00:06:55.99 bitrate=N/A speed=17.9x    frame=10222 fps=431 q=-0.0 size=N/A time=00:07:06.34 bitrate=N/A speed=  18x    frame=10460 fps=432 q=-0.0 size=N/A time=00:07:16.26 bitrate=N/A speed=  18x    frame=10712 fps=433 q=-0.0 size=N/A time=00:07:26.77 bitrate=N/A speed=18.1x    frame=10956 fps=434 q=-0.0 size=N/A time=00:07:36.95 bitrate=N/A speed=18.1x    frame=11192 fps=434 q=-0.0 size=N/A time=00:07:46.79 bitrate=N/A speed=18.1x    frame=11419 fps=434 q=-0.0 size=N/A time=00:07:56.26 bitrate=N/A speed=18.1x    frame=11641 fps=434 q=-0.0 size=N/A time=00:08:05.52 bitrate=N/A speed=18.1x    frame=11905 fps=436 q=-0.0 size=N/A time=00:08:16.53 bitrate=N/A speed=18.2x    frame=12138 fps=436 q=-0.0 size=N/A time=00:08:26.25 bitrate=N/A speed=18.2x    frame=12406 fps=438 q=-0.0 size=N/A time=00:08:37.43 bitrate=N/A speed=18.3x    frame=12652 fps=438 q=-0.0 size=N/A time=00:08:47.69 bitrate=N/A speed=18.3x    frame=12881 fps=438 q=-0.0 size=N/A time=00:08:57.24 bitrate=N/A speed=18.3x    frame=13124 fps=439 q=-0.0 size=N/A time=00:09:07.38 bitrate=N/A speed=18.3x    frame=13355 fps=439 q=-0.0 size=N/A time=00:09:17.01 bitrate=N/A speed=18.3x    frame=13567 fps=438 q=-0.0 size=N/A time=00:09:25.85 bitrate=N/A speed=18.3x    frame=13819 fps=439 q=-0.0 size=N/A time=00:09:36.36 bitrate=N/A speed=18.3x    frame=14078 fps=440 q=-0.0 size=N/A time=00:09:47.16 bitrate=N/A speed=18.4x    frame=14300 fps=440 q=-0.0 size=N/A time=00:09:56.42 bitrate=N/A speed=18.4x    frame=14541 fps=440 q=-0.0 size=N/A time=00:10:06.48 bitrate=N/A speed=18.4x    frame=14773 fps=441 q=-0.0 size=N/A time=00:10:16.15 bitrate=N/A speed=18.4x    frame=15032 fps=441 q=-0.0 size=N/A time=00:10:26.95 bitrate=N/A speed=18.4x    frame=15245 fps=441 q=-0.0 size=N/A time=00:10:35.84 bitrate=N/A speed=18.4x    frame=15515 fps=442 q=-0.0 size=N/A time=00:10:47.10 bitrate=N/A speed=18.4x    frame=15770 fps=443 q=-0.0 size=N/A time=00:10:57.74 bitrate=N/A speed=18.5x    frame=15997 fps=443 q=-0.0 size=N/A time=00:11:07.20 bitrate=N/A speed=18.5x    frame=16250 fps=444 q=-0.0 size=N/A time=00:11:17.76 bitrate=N/A speed=18.5x    frame=16507 fps=445 q=-0.0 size=N/A time=00:11:28.47 bitrate=N/A speed=18.5x    frame=16745 fps=445 q=-0.0 size=N/A time=00:11:38.40 bitrate=N/A speed=18.5x    frame=16998 fps=445 q=-0.0 size=N/A time=00:11:48.95 bitrate=N/A speed=18.6x    frame=17225 fps=445 q=-0.0 size=N/A time=00:11:58.42 bitrate=N/A speed=18.6x    frame=17470 fps=445 q=-0.0 size=N/A time=00:12:08.64 bitrate=N/A speed=18.6x    frame=17719 fps=446 q=-0.0 size=N/A time=00:12:19.02 bitrate=N/A speed=18.6x    frame=17955 fps=446 q=-0.0 size=N/A time=00:12:28.87 bitrate=N/A speed=18.6x    frame=18211 fps=447 q=-0.0 size=N/A time=00:12:39.55 bitrate=N/A speed=18.6x    frame=18441 fps=447 q=-0.0 size=N/A time=00:12:49.14 bitrate=N/A speed=18.6x    frame=18669 fps=447 q=-0.0 size=N/A time=00:12:58.65 bitrate=N/A speed=18.6x    frame=18920 fps=447 q=-0.0 size=N/A time=00:13:09.12 bitrate=N/A speed=18.6x    frame=19174 fps=448 q=-0.0 size=N/A time=00:13:19.71 bitrate=N/A speed=18.7x    frame=19381 fps=447 q=-0.0 size=N/A time=00:13:28.34 bitrate=N/A speed=18.6x    frame=19641 fps=448 q=-0.0 size=N/A time=00:13:39.19 bitrate=N/A speed=18.7x    frame=19885 fps=448 q=-0.0 size=N/A time=00:13:49.37 bitrate=N/A speed=18.7x    frame=20144 fps=448 q=-0.0 size=N/A time=00:14:00.21 bitrate=N/A speed=18.7x    frame=20367 fps=448 q=-0.0 size=N/A time=00:14:09.47 bitrate=N/A speed=18.7x    frame=20554 fps=447 q=-0.0 size=N/A time=00:14:17.27 bitrate=N/A speed=18.6x    frame=20754 fps=447 q=-0.0 size=N/A time=00:14:25.61 bitrate=N/A speed=18.6x    frame=21004 fps=447 q=-0.0 size=N/A time=00:14:36.04 bitrate=N/A speed=18.6x    frame=21217 fps=447 q=-0.0 size=N/A time=00:14:44.92 bitrate=N/A speed=18.6x    frame=21475 fps=447 q=-0.0 size=N/A time=00:14:55.68 bitrate=N/A speed=18.6x    frame=21714 fps=447 q=-0.0 size=N/A time=00:15:05.65 bitrate=N/A speed=18.7x    frame=21902 fps=446 q=-0.0 size=N/A time=00:15:13.49 bitrate=N/A speed=18.6x    frame=22138 fps=447 q=-0.0 size=N/A time=00:15:23.33 bitrate=N/A speed=18.6x    frame=22346 fps=446 q=-0.0 size=N/A time=00:15:32.01 bitrate=N/A speed=18.6x    frame=22598 fps=446 q=-0.0 size=N/A time=00:15:42.52 bitrate=N/A speed=18.6x    frame=22815 fps=446 q=-0.0 size=N/A time=00:15:51.57 bitrate=N/A speed=18.6x    frame=22976 fps=445 q=-0.0 size=N/A time=00:15:58.29 bitrate=N/A speed=18.6x    frame=23207 fps=445 q=-0.0 size=N/A time=00:16:07.92 bitrate=N/A speed=18.6x    frame=23455 fps=445 q=-0.0 size=N/A time=00:16:18.26 bitrate=N/A speed=18.6x    frame=23722 fps=446 q=-0.0 size=N/A time=00:16:29.40 bitrate=N/A speed=18.6x    frame=23968 fps=446 q=-0.0 size=N/A time=00:16:39.66 bitrate=N/A speed=18.6x    frame=24214 fps=447 q=-0.0 size=N/A time=00:16:49.92 bitrate=N/A speed=18.6x    frame=24445 fps=447 q=-0.0 size=N/A time=00:16:59.56 bitrate=N/A speed=18.6x    frame=24678 fps=447 q=-0.0 size=N/A time=00:17:09.27 bitrate=N/A speed=18.6x    frame=24927 fps=447 q=-0.0 size=N/A time=00:17:19.66 bitrate=N/A speed=18.6x    frame=25160 fps=447 q=-0.0 size=N/A time=00:17:29.38 bitrate=N/A speed=18.6x    frame=25402 fps=447 q=-0.0 size=N/A time=00:17:39.47 bitrate=N/A speed=18.7x    frame=25593 fps=447 q=-0.0 size=N/A time=00:17:47.44 bitrate=N/A speed=18.6x    frame=25770 fps=446 q=-0.0 size=N/A time=00:17:54.82 bitrate=N/A speed=18.6x    frame=25927 fps=444 q=-0.0 size=N/A time=00:18:01.37 bitrate=N/A speed=18.5x    frame=26146 fps=444 q=-0.0 size=N/A time=00:18:10.50 bitrate=N/A speed=18.5x    frame=26362 fps=444 q=-0.0 size=N/A time=00:18:19.51 bitrate=N/A speed=18.5x    frame=26625 fps=445 q=-0.0 size=N/A time=00:18:30.48 bitrate=N/A speed=18.5x    frame=26855 fps=445 q=-0.0 size=N/A time=00:18:40.07 bitrate=N/A speed=18.5x    frame=27072 fps=444 q=-0.0 size=N/A time=00:18:49.12 bitrate=N/A speed=18.5x    frame=27251 fps=444 q=-0.0 size=N/A time=00:18:56.59 bitrate=N/A speed=18.5x    frame=27430 fps=443 q=-0.0 size=N/A time=00:19:04.05 bitrate=N/A speed=18.5x    frame=27641 fps=442 q=-0.0 size=N/A time=00:19:12.86 bitrate=N/A speed=18.5x    frame=27862 fps=442 q=-0.0 size=N/A time=00:19:22.07 bitrate=N/A speed=18.4x    frame=28108 fps=443 q=-0.0 size=N/A time=00:19:32.33 bitrate=N/A speed=18.5x    frame=28363 fps=443 q=-0.0 size=N/A time=00:19:42.97 bitrate=N/A speed=18.5x    frame=28603 fps=443 q=-0.0 size=N/A time=00:19:52.98 bitrate=N/A speed=18.5x    frame=28839 fps=443 q=-0.0 size=N/A time=00:20:02.82 bitrate=N/A speed=18.5x    frame=29068 fps=443 q=-0.0 size=N/A time=00:20:12.37 bitrate=N/A speed=18.5x    frame=29313 fps=443 q=-0.0 size=N/A time=00:20:22.59 bitrate=N/A speed=18.5x    frame=29517 fps=443 q=-0.0 size=N/A time=00:20:31.10 bitrate=N/A speed=18.5x    frame=29773 fps=443 q=-0.0 size=N/A time=00:20:41.78 bitrate=N/A speed=18.5x    frame=30047 fps=444 q=-0.0 size=N/A time=00:20:53.21 bitrate=N/A speed=18.5x    frame=30267 fps=444 q=-0.0 size=N/A time=00:21:02.38 bitrate=N/A speed=18.5x    frame=30510 fps=444 q=-0.0 size=N/A time=00:21:12.52 bitrate=N/A speed=18.5x    frame=30780 fps=445 q=-0.0 size=N/A time=00:21:23.78 bitrate=N/A speed=18.5x    frame=31022 fps=445 q=-0.0 size=N/A time=00:21:33.87 bitrate=N/A speed=18.6x    frame=31232 fps=445 q=-0.0 size=N/A time=00:21:42.63 bitrate=N/A speed=18.5x    frame=31459 fps=445 q=-0.0 size=N/A time=00:21:52.10 bitrate=N/A speed=18.5x    frame=31651 fps=444 q=-0.0 size=N/A time=00:22:00.11 bitrate=N/A speed=18.5x    frame=31836 fps=443 q=-0.0 size=N/A time=00:22:07.82 bitrate=N/A speed=18.5x    frame=31971 fps=442 q=-0.0 size=N/A time=00:22:13.45 bitrate=N/A speed=18.4x    frame=32194 fps=442 q=-0.0 size=N/A time=00:22:22.75 bitrate=N/A speed=18.4x    frame=32394 fps=442 q=-0.0 size=N/A time=00:22:31.09 bitrate=N/A speed=18.4x    frame=32536 fps=441 q=-0.0 size=N/A time=00:22:37.02 bitrate=N/A speed=18.4x    frame=32661 fps=439 q=-0.0 size=N/A time=00:22:42.23 bitrate=N/A speed=18.3x    frame=32843 fps=439 q=-0.0 size=N/A time=00:22:49.82 bitrate=N/A speed=18.3x    frame=33051 fps=438 q=-0.0 size=N/A time=00:22:58.50 bitrate=N/A speed=18.3x    frame=33269 fps=438 q=-0.0 size=N/A time=00:23:07.59 bitrate=N/A speed=18.3x    frame=33484 fps=438 q=-0.0 size=N/A time=00:23:16.56 bitrate=N/A speed=18.3x    frame=33741 fps=438 q=-0.0 size=N/A time=00:23:27.28 bitrate=N/A speed=18.3x    frame=33988 fps=439 q=-0.0 size=N/A time=00:23:37.58 bitrate=N/A speed=18.3x    frame=34217 fps=439 q=-0.0 size=N/A time=00:23:47.13 bitrate=N/A speed=18.3x    frame=34468 fps=439 q=-0.0 size=N/A time=00:23:57.60 bitrate=N/A speed=18.3x    [Parsed_psnr_10 @ 00000192c7146e80] PSNR y:47.545665 u:50.690166 v:50.258872 average:48.319978 min:36.960137 max:inf
[out#0/null @ 00000192c4824780] video:14902KiB audio:271236KiB subtitle:0KiB other streams:0KiB global headers:0KiB muxing overhead: unknown
frame=34680 fps=439 q=-0.0 Lsize=N/A time=00:24:06.44 bitrate=N/A speed=18.3x    
